<svg width="42" height="7" viewBox="0 0 42 7" fill="none" xmlns="http://www.w3.org/2000/svg">
<g clip-path="url(#clip0_101_174)">
<path d="M8.76 1.84C8.98 1.46 9.28 1.16 9.66 0.939995C10.04 0.729995 10.47 0.619995 10.94 0.619995C11.49 0.619995 11.98 0.759995 12.39 1.04C12.8 1.32 13.1 1.71 13.26 2.22H12.12C12.01 1.98 11.85 1.81 11.64 1.69C11.43 1.57 11.2 1.51 10.93 1.51C10.64 1.51 10.39 1.58 10.16 1.71C9.93 1.84 9.76 2.03 9.64 2.28C9.52 2.53 9.45 2.81 9.45 3.14C9.45 3.47 9.51 3.75 9.64 4C9.76 4.25 9.94 4.44 10.16 4.57C10.38 4.7 10.64 4.77 10.93 4.77C11.2 4.77 11.44 4.71 11.64 4.59C11.85 4.47 12 4.29 12.12 4.06H13.26C13.1 4.57 12.81 4.95999 12.39 5.24C11.98 5.52 11.49 5.66 10.94 5.66C10.47 5.66 10.04 5.55 9.66 5.34C9.28 5.13 8.98 4.83 8.76 4.44C8.54 4.06 8.43 3.62 8.43 3.14C8.43 2.66 8.54 2.22 8.76 1.83V1.84Z" fill="white"/>
<path d="M14.55 5.43001C14.25 5.26001 14.01 5.03001 13.84 4.72001C13.67 4.41001 13.58 4.06001 13.58 3.66001C13.58 3.26001 13.67 2.91001 13.85 2.60001C14.03 2.29001 14.27 2.06001 14.58 1.89001C14.89 1.72001 15.23 1.64001 15.61 1.64001C15.99 1.64001 16.33 1.72001 16.64 1.89001C16.95 2.06001 17.19 2.29001 17.37 2.60001C17.55 2.91001 17.64 3.26001 17.64 3.66001C17.64 4.06001 17.55 4.42001 17.37 4.72001C17.19 5.03001 16.94 5.26001 16.63 5.43001C16.32 5.60001 15.98 5.68001 15.59 5.68001C15.2 5.68001 14.87 5.60001 14.57 5.43001H14.55ZM16.08 4.69001C16.24 4.60001 16.36 4.47002 16.46 4.30001C16.55 4.13001 16.6 3.91001 16.6 3.66001C16.6 3.29001 16.5 3.00001 16.31 2.80001C16.11 2.60001 15.87 2.50001 15.59 2.50001C15.31 2.50001 15.07 2.60001 14.88 2.80001C14.69 3.00001 14.59 3.29001 14.59 3.66001C14.59 4.03001 14.68 4.32001 14.87 4.52001C15.06 4.72001 15.29 4.82001 15.57 4.82001C15.75 4.82001 15.92 4.78001 16.08 4.69001Z" fill="white"/>
<path d="M18.04 2.59C18.2 2.28 18.41 2.05 18.69 1.88C18.96 1.71 19.27 1.63 19.6 1.63C19.85 1.63 20.1 1.69 20.33 1.8C20.56 1.91 20.75 2.06 20.88 2.24V0.380005H21.89V5.62H20.88V5.04C20.76 5.23 20.59 5.39001 20.36 5.51C20.14 5.63 19.88 5.69 19.59 5.69C19.26 5.69 18.96 5.61 18.68 5.44C18.41 5.27 18.19 5.03 18.03 4.72C17.87 4.41 17.79 4.06 17.79 3.65C17.79 3.24 17.87 2.9 18.03 2.6L18.04 2.59ZM20.75 3.04C20.66 2.87 20.53 2.74001 20.37 2.64001C20.21 2.55001 20.04 2.5 19.85 2.5C19.66 2.5 19.5 2.54 19.34 2.63C19.18 2.72 19.06 2.85 18.96 3.02C18.86 3.19 18.81 3.4 18.81 3.63C18.81 3.86 18.86 4.07 18.96 4.25C19.06 4.43 19.18 4.56 19.34 4.66C19.5 4.75 19.67 4.8 19.85 4.8C20.03 4.8 20.21 4.75 20.37 4.66C20.53 4.57 20.66 4.44 20.75 4.26C20.84 4.08 20.89 3.88001 20.89 3.64001C20.89 3.40001 20.84 3.19 20.75 3.02V3.04Z" fill="white"/>
<path d="M26.19 3.96001H23.32C23.34 4.24001 23.44 4.46001 23.62 4.63001C23.8 4.80001 24.01 4.87001 24.26 4.87001C24.63 4.87001 24.89 4.71001 25.05 4.40001H26.12C26.01 4.78001 25.79 5.09001 25.47 5.33001C25.15 5.57001 24.76 5.69001 24.29 5.69001C23.91 5.69001 23.57 5.61001 23.27 5.44001C22.97 5.27001 22.74 5.04001 22.57 4.73001C22.4 4.42001 22.32 4.07001 22.32 3.67001C22.32 3.27001 22.4 2.91001 22.57 2.60001C22.73 2.29001 22.97 2.06001 23.26 1.89001C23.56 1.72001 23.9 1.64001 24.29 1.64001C24.68 1.64001 25 1.72001 25.29 1.88001C25.58 2.04001 25.81 2.27001 25.98 2.56001C26.14 2.85001 26.22 3.19001 26.22 3.58001C26.22 3.72001 26.22 3.85001 26.19 3.96001ZM25.19 3.29001C25.19 3.04001 25.09 2.83001 24.91 2.68001C24.73 2.53001 24.51 2.45001 24.25 2.45001C24 2.45001 23.8 2.52001 23.63 2.67001C23.46 2.82001 23.36 3.03001 23.32 3.29001H25.18H25.19Z" fill="white"/>
<path d="M28.82 5.61995L28.01 4.39995L27.3 5.61995H26.24L27.52 3.64995L26.22 1.69995H27.34L28.14 2.90995L28.86 1.69995H29.92L28.63 3.64995L29.93 5.61995H28.81H28.82Z" fill="white"/>
<path d="M30.18 2.59C30.34 2.28 30.55 2.05 30.82 1.88C31.09 1.71 31.39 1.63 31.73 1.63C32.02 1.63 32.28 1.69 32.5 1.81C32.72 1.93 32.9 2.08 33.03 2.26V1.7H34.03V5.62H33.03V5.05C32.9 5.23001 32.73 5.39001 32.5 5.51C32.28 5.63 32.02 5.69 31.72 5.69C31.39 5.69 31.09 5.61 30.82 5.44C30.55 5.27 30.33 5.03 30.18 4.72C30.02 4.41 29.94 4.06 29.94 3.65C29.94 3.24 30.02 2.9 30.18 2.6V2.59ZM32.89 3.04C32.8 2.87 32.67 2.74001 32.51 2.64C32.35 2.55 32.18 2.5 31.99 2.5C31.8 2.5 31.64 2.54 31.48 2.63001C31.32 2.72001 31.2 2.85 31.1 3.02C31 3.19 30.95 3.4 30.95 3.63C30.95 3.86 31 4.07 31.1 4.25C31.2 4.43 31.32 4.56 31.48 4.66C31.64 4.75 31.81 4.8 31.99 4.8C32.17 4.8 32.35 4.75 32.51 4.66C32.67 4.57 32.8 4.44001 32.89 4.26C32.98 4.08 33.03 3.88001 33.03 3.64001C33.03 3.40001 32.98 3.19 32.89 3.02V3.04Z" fill="white"/>
<path d="M40.75 2.09001C41.04 2.38001 41.19 2.80001 41.19 3.33001V5.63001H40.2V3.45001C40.2 3.14001 40.12 2.91001 39.97 2.75001C39.81 2.59001 39.6 2.51001 39.33 2.51001C39.06 2.51001 38.85 2.59001 38.69 2.75001C38.53 2.91001 38.45 3.15001 38.45 3.45001V5.62001H37.46V3.45001C37.46 3.14001 37.38 2.91001 37.23 2.75001C37.07 2.59001 36.86 2.51001 36.59 2.51001C36.32 2.51001 36.1 2.59001 35.94 2.75001C35.78 2.91001 35.7 3.15001 35.7 3.45001V5.62001H34.71V1.70001H35.7V2.17001C35.83 2.00001 35.99 1.88001 36.19 1.78001C36.39 1.68001 36.61 1.64001 36.85 1.64001C37.16 1.64001 37.43 1.71001 37.67 1.83001C37.91 1.96001 38.1 2.15001 38.23 2.39001C38.36 2.16001 38.54 1.98001 38.79 1.85001C39.04 1.72001 39.3 1.64001 39.58 1.64001C40.06 1.64001 40.45 1.79001 40.74 2.08001L40.75 2.09001Z" fill="white"/>
<path d="M6.1 2.96005C6.07 2.79005 5.98 2.63005 5.79 2.54005L3.95 1.67005C3.8 1.60005 3.63 1.60005 3.48 1.67005L1.64 2.54005C1.46 2.63005 1.36 2.79005 1.33 2.96005H1.32V4.64005C1.32 4.84005 1.43 5.04005 1.64 5.14005L3.48 6.01005C3.63 6.08005 3.8 6.08005 3.95 6.01005L5.79 5.14005C6 5.04005 6.11 4.84005 6.11 4.64005V3.04005V2.96005H6.1Z" fill="url(#paint0_radial_101_174)"/>
<path opacity="0.2" d="M5.79 2.66005L3.95 1.79005C3.8 1.72005 3.63 1.72005 3.48 1.79005L1.64 2.66005C1.46 2.75005 1.36 2.91005 1.33 3.08005H1.32V3.47005L3.37 4.44005C3.59 4.54005 3.84 4.54005 4.05 4.44005L6.1 3.47005V3.16005V3.08005H6.09C6.06 2.91005 5.97 2.75005 5.78 2.66005H5.79Z" fill="#231F20"/>
<path d="M6.72 1.33L4.05 0.0800049C3.83 -0.0199951 3.58 -0.0199951 3.37 0.0800049L0.7 1.33C0.39 1.48 0.24 1.77 0.24 2.06V3.47C0.1 3.54 0 3.68 0 3.84V4.4H0.82V3.84C0.82 3.67 0.72 3.53 0.58 3.47V2.71C0.58 2.71 0.65 2.77 0.7 2.79L3.37 4.05C3.59 4.15 3.84 4.15 4.05 4.05L6.72 2.79C7.33 2.5 7.33 1.63 6.72 1.34V1.33Z" fill="url(#paint1_radial_101_174)"/>
</g>
<defs>
<radialGradient id="paint0_radial_101_174" cx="0" cy="0" r="1" gradientUnits="userSpaceOnUse" gradientTransform="translate(-0.46 1.58005) scale(9.25)">
<stop offset="0.16" stop-color="#1CECFF"/>
<stop offset="1" stop-color="#791FD1"/>
</radialGradient>
<radialGradient id="paint1_radial_101_174" cx="0" cy="0" r="1" gradientUnits="userSpaceOnUse" gradientTransform="translate(-1.04 -1.05999) scale(9.82)">
<stop offset="0.14" stop-color="#1CECFF"/>
<stop offset="1" stop-color="#791FD1"/>
</radialGradient>
<clipPath id="clip0_101_174">
<rect width="41.19" height="6.06" fill="white"/>
</clipPath>
</defs>
</svg>
