<svg width="22" height="18" viewBox="0 0 22 18" fill="none" xmlns="http://www.w3.org/2000/svg">
<path d="M18.1263 8.78102C18.0371 8.27586 17.7697 7.80042 17.2051 7.53298L11.7375 4.94775C11.2918 4.73975 10.7866 4.73975 10.3409 4.94775L4.8733 7.53298C4.33842 7.80042 4.04127 8.27586 3.95212 8.78102H3.92241V13.7732C3.92241 14.3675 4.24928 14.9618 4.8733 15.2589L10.3409 17.8442C10.7866 18.0522 11.2918 18.0522 11.7375 17.8442L17.2051 15.2589C17.8291 14.9618 18.156 14.3675 18.156 13.7732V9.01874V8.78102H18.1263Z" fill="url(#paint0_radial_101_201)"/>
<path opacity="0.2" d="M17.2051 7.88955L11.7375 5.30432C11.2918 5.09631 10.7866 5.09631 10.3409 5.30432L4.8733 7.88955C4.33842 8.15698 4.04127 8.63243 3.95212 9.13758H3.92241V10.2965L10.014 13.1789C10.6678 13.476 11.4106 13.476 12.0347 13.1789L18.1263 10.2965V9.37531V9.13758H18.0966C18.0074 8.63243 17.74 8.15698 17.1754 7.88955H17.2051Z" fill="#231F20"/>
<path d="M19.9686 3.93727L12.0347 0.222864C11.3809 -0.0742881 10.6381 -0.0742881 10.014 0.222864L2.08007 3.93727C1.15889 4.383 0.713166 5.24474 0.713166 6.10648V10.2963C0.297152 10.5043 0 10.9203 0 11.3958V13.0598H2.43665V11.3958C2.43665 10.8906 2.1395 10.4746 1.72348 10.2963V8.03797C1.72348 8.03797 1.93149 8.21626 2.08007 8.27569L10.014 12.0198C10.6678 12.317 11.4106 12.317 12.0347 12.0198L19.9686 8.27569C21.7813 7.41395 21.7813 4.82872 19.9686 3.96698V3.93727Z" fill="url(#paint1_radial_101_201)"/>
<defs>
<radialGradient id="paint0_radial_101_201" cx="0" cy="0" r="1" gradientUnits="userSpaceOnUse" gradientTransform="translate(-1.3669 4.68032) scale(27.4866)">
<stop offset="0.16" stop-color="#1CECFF"/>
<stop offset="1" stop-color="#791FD1"/>
</radialGradient>
<radialGradient id="paint1_radial_101_201" cx="0" cy="0" r="1" gradientUnits="userSpaceOnUse" gradientTransform="translate(-3.09039 -3.16467) scale(29.1804 29.1804)">
<stop offset="0.14" stop-color="#1CECFF"/>
<stop offset="1" stop-color="#791FD1"/>
</radialGradient>
</defs>
</svg>
