<svg width="1250" height="270" viewBox="0 0 1250 270" fill="none" xmlns="http://www.w3.org/2000/svg">
<path d="M0 8C0 3.58173 3.58172 0 8 0H1242C1246.42 0 1250 3.58172 1250 8V262C1250 266.418 1246.42 270 1242 270H7.99999C3.58171 270 0 266.418 0 262V8Z" fill="#F4F4F4"/>
<path d="M30 178.649L121.538 194.054L213.077 230L304.615 117.027L396.154 204.324L487.692 96.4865L579.231 142.703L670.769 91.3514L762.308 158.108L853.846 70.8108L945.385 65.6757L1036.92 40L1128.46 168.378L1220 81.0811M1220 81.0811V81.0811Z" stroke="#222222"/>
<circle cx="30" cy="178.649" r="2" fill="#222222" stroke="#F4F4F4"/>
<circle cx="121.538" cy="194.054" r="2" fill="#222222" stroke="#F4F4F4"/>
<circle cx="213.077" cy="230" r="2" fill="#222222" stroke="#F4F4F4"/>
<circle cx="304.615" cy="117.027" r="2" fill="#222222" stroke="#F4F4F4"/>
<circle cx="396.154" cy="204.324" r="2" fill="#222222" stroke="#F4F4F4"/>
<circle cx="487.692" cy="96.4865" r="2" fill="#222222" stroke="#F4F4F4"/>
<circle cx="579.231" cy="142.703" r="2" fill="#222222" stroke="#F4F4F4"/>
<circle cx="670.769" cy="91.3513" r="2" fill="#222222" stroke="#F4F4F4"/>
<circle cx="762.308" cy="158.108" r="2" fill="#222222" stroke="#F4F4F4"/>
<circle cx="853.846" cy="70.8108" r="2" fill="#222222" stroke="#F4F4F4"/>
<circle cx="945.385" cy="65.6757" r="2" fill="#222222" stroke="#F4F4F4"/>
<circle cx="1036.92" cy="40" r="2" fill="#222222" stroke="#F4F4F4"/>
<circle cx="1128.46" cy="168.378" r="2" fill="#222222" stroke="#F4F4F4"/>
<circle cx="1220" cy="81.0811" r="2" fill="#222222" stroke="#F4F4F4"/>
</svg>
